<svg width="128" height="143" viewBox="0 0 128 143" fill="none" xmlns="http://www.w3.org/2000/svg">
<rect width="128" height="143" fill="#333333"/>
<g id="LOGIN">
<rect width="1600" height="900" transform="translate(-894 -149)" fill="white"/>
<g id="Frame 26">
<g id="Frame 25">
<g id="2X2">
<path id="Vector" d="M19.0207 121.777C18.9923 121.434 18.8901 121.101 18.7211 120.801C18.5522 120.502 18.3204 120.242 18.0418 120.04C17.3542 119.583 16.5371 119.36 15.7124 119.404C14.8966 119.352 14.0861 119.568 13.4045 120.019C13.1543 120.193 12.9502 120.424 12.8095 120.695C12.6689 120.965 12.5959 121.265 12.5971 121.569C12.5814 121.889 12.657 122.207 12.8152 122.485C12.9733 122.764 13.2075 122.991 13.4902 123.141C14.1592 123.523 14.8818 123.803 15.6338 123.97L17.3772 124.385C18.419 124.611 19.4241 124.982 20.364 125.485C21.1953 125.921 21.905 126.557 22.4289 127.336C22.9358 128.158 23.1847 129.114 23.1435 130.079C23.1681 130.891 23.001 131.697 22.6559 132.432C22.3108 133.167 21.7973 133.81 21.1571 134.309C19.8376 135.362 17.9941 135.888 15.6267 135.888C13.6255 135.993 11.6466 135.428 10.0033 134.281C9.29518 133.707 8.73209 132.975 8.35967 132.143C7.98726 131.311 7.816 130.404 7.85977 129.493H11.8254C11.8317 129.924 11.9391 130.346 12.139 130.727C12.3388 131.109 12.6254 131.437 12.9758 131.687C13.759 132.193 14.6806 132.443 15.6124 132.402C16.4927 132.447 17.3649 132.214 18.1061 131.737C18.3965 131.558 18.6375 131.31 18.8073 131.014C18.977 130.718 19.07 130.385 19.0778 130.044C19.0839 129.737 19.0067 129.434 18.8545 129.167C18.7023 128.9 18.4807 128.68 18.2132 128.529C17.4557 128.102 16.636 127.795 15.7839 127.621L13.676 127.093C12.2525 126.802 10.9239 126.161 9.81042 125.228C9.33495 124.799 8.96023 124.271 8.71315 123.68C8.46608 123.09 8.35277 122.452 8.38137 121.812C8.35342 120.714 8.6818 119.636 9.3174 118.74C9.98721 117.83 10.8909 117.119 11.9326 116.682C13.1318 116.184 14.4214 115.941 15.7195 115.968C17.0116 115.931 18.2963 116.174 19.4851 116.682C20.494 117.122 21.3619 117.831 21.9931 118.733C22.5985 119.632 22.922 120.692 22.922 121.777H19.0207Z" fill="#333333"/>
<path id="Vector_2" d="M36.4408 121.777C36.4155 121.435 36.3161 121.102 36.1496 120.802C35.983 120.502 35.7532 120.242 35.4762 120.04C34.789 119.582 33.9716 119.359 33.1468 119.404C32.3312 119.353 31.5209 119.569 30.8389 120.019C30.5893 120.186 30.3837 120.411 30.2394 120.675C30.0951 120.939 30.0165 121.233 30.01 121.534C29.9917 121.854 30.0662 122.173 30.2247 122.451C30.3831 122.73 30.6187 122.957 30.9032 123.106C31.5718 123.488 32.2945 123.768 33.0468 123.934L34.7902 124.349C35.8633 124.569 36.9 124.94 37.8698 125.449C38.697 125.888 39.4037 126.524 39.9277 127.3C40.4345 128.123 40.6834 129.078 40.6422 130.044C40.6703 130.856 40.5048 131.663 40.1594 132.398C39.814 133.134 39.2986 133.777 38.6558 134.274C37.3363 135.326 35.4928 135.853 33.1254 135.853C31.1244 135.956 29.1458 135.391 27.5021 134.245C26.7937 133.678 26.2277 132.953 25.8493 132.128C25.4709 131.303 25.2906 130.401 25.3228 129.493H29.2955C29.3035 129.923 29.4117 130.345 29.6114 130.726C29.8111 131.107 30.0968 131.436 30.4459 131.687C31.2318 132.194 32.1556 132.443 33.0897 132.402C33.9676 132.446 34.8373 132.213 35.5762 131.737C35.86 131.554 36.094 131.304 36.2573 131.008C36.4207 130.713 36.5082 130.381 36.5122 130.044C36.5183 129.737 36.4418 129.435 36.291 129.169C36.1401 128.902 35.9204 128.681 35.6548 128.529C34.8961 128.104 34.0768 127.798 33.2254 127.621L31.0818 127.093C29.6588 126.801 28.3305 126.16 27.2163 125.228C26.7408 124.799 26.3661 124.271 26.119 123.68C25.8719 123.09 25.7586 122.452 25.7872 121.812C25.7582 120.713 26.0894 119.634 26.7304 118.74C27.397 117.827 28.3017 117.115 29.3455 116.682C30.5418 116.183 31.8294 115.939 33.1254 115.968C34.4175 115.931 35.7022 116.174 36.8909 116.682C37.9019 117.121 38.7722 117.831 39.4061 118.733C40.0094 119.633 40.3303 120.693 40.3278 121.777H36.4408Z" fill="#333333"/>
<path id="Vector_3" d="M47.4802 116.21V135.574H43.386V116.21H47.4802Z" fill="#333333"/>
<path id="Vector_4" d="M62.8782 116.21H66.9439V129.015C66.9943 130.299 66.6466 131.568 65.9483 132.648C65.2499 133.727 64.2351 134.565 63.0425 135.045C60.3729 136.112 57.3951 136.112 54.7255 135.045C53.5668 134.566 52.5733 133.759 51.8674 132.723C51.1584 131.617 50.802 130.321 50.8456 129.008V116.21H54.9398V128.872C54.9196 129.337 55.0101 129.801 55.2039 130.224C55.3977 130.648 55.6892 131.019 56.0545 131.308C56.8836 131.889 57.8715 132.201 58.884 132.201C59.8965 132.201 60.8844 131.889 61.7135 131.308C62.0876 131.024 62.3884 130.655 62.5909 130.231C62.7935 129.807 62.892 129.341 62.8782 128.872V116.21Z" fill="#333333"/>
<path id="Vector_5" d="M77.1687 135.574H70.3093V116.21H77.1687C78.9068 116.169 80.6271 116.567 82.1704 117.368C83.5643 118.122 84.6976 119.281 85.4215 120.69C86.1724 122.318 86.5614 124.089 86.5614 125.882C86.5614 127.674 86.1724 129.445 85.4215 131.073C84.698 132.489 83.5619 133.652 82.1632 134.409C80.6217 135.208 78.9047 135.609 77.1687 135.574ZM74.4035 132.066H77.0044C77.7593 132.119 78.517 132.016 79.2302 131.762C79.9433 131.509 80.5964 131.111 81.1486 130.594C82.1013 129.608 82.5777 128.033 82.5777 125.871C82.5777 123.708 82.1013 122.146 81.1486 121.184C80.5942 120.674 79.9407 120.284 79.2289 120.038C78.5171 119.792 77.7623 119.696 77.0115 119.754H74.4035V132.066Z" fill="#333333"/>
<path id="Vector_6" d="M89.6443 135.574V116.21H102.692V119.583H93.7385V124.199H102.02V127.579H93.7385V132.187H102.727V135.56L89.6443 135.574Z" fill="#333333"/>
<path id="Vector_7" d="M116.468 121.777C116.444 121.427 116.344 121.088 116.175 120.782C116.006 120.475 115.772 120.21 115.489 120.005C114.802 119.546 113.984 119.323 113.159 119.369C112.344 119.317 111.533 119.533 110.851 119.983C110.601 120.157 110.397 120.389 110.256 120.659C110.116 120.929 110.043 121.229 110.044 121.534C110.028 121.853 110.104 122.171 110.262 122.449C110.42 122.728 110.654 122.955 110.937 123.106C111.607 123.487 112.329 123.766 113.081 123.934L114.824 124.349C115.868 124.577 116.875 124.947 117.818 125.449C118.645 125.888 119.352 126.524 119.876 127.3C120.383 128.123 120.632 129.078 120.59 130.044C120.617 130.855 120.45 131.662 120.105 132.397C119.76 133.132 119.246 133.775 118.604 134.274C117.285 135.326 115.441 135.853 113.074 135.853C111.073 135.956 109.094 135.391 107.45 134.245C106.741 133.679 106.174 132.954 105.795 132.129C105.417 131.303 105.237 130.401 105.271 129.493H109.322C109.33 129.923 109.438 130.345 109.638 130.726C109.838 131.107 110.124 131.436 110.473 131.687C111.258 132.194 112.182 132.444 113.116 132.402C113.994 132.446 114.864 132.213 115.603 131.737C115.891 131.553 116.128 131.299 116.293 131C116.458 130.7 116.545 130.364 116.546 130.022C116.552 129.716 116.476 129.414 116.325 129.147C116.174 128.881 115.954 128.66 115.689 128.507C114.928 128.081 114.106 127.775 113.252 127.6L111.109 127.071C109.685 126.781 108.357 126.14 107.243 125.206C106.768 124.778 106.393 124.249 106.146 123.659C105.899 123.068 105.785 122.43 105.814 121.791C105.785 120.691 106.116 119.612 106.757 118.718C107.423 117.808 108.325 117.096 109.365 116.661C110.564 116.163 111.854 115.919 113.152 115.946C114.444 115.909 115.729 116.153 116.918 116.661C117.928 117.098 118.796 117.808 119.426 118.711C120.034 119.609 120.358 120.67 120.355 121.755L116.468 121.777Z" fill="#333333"/>
<path id="Vector_8" d="M121.784 9.96045V22.729H115.396V112.137H13.2187V22.729H6.83086V9.96045H32.3751V22.729H25.9944V99.3618H57.9194V70.6022L70.6951 73.8175V99.3618H102.627V22.729H96.2394V9.96045H121.784Z" fill="#333333"/>
<path id="Vector_9" d="M83.4708 9.96045V22.729H70.6951V51.4886L57.9194 48.2733V22.729H45.1437V9.96045H83.4708Z" fill="#333333"/>
<path id="Vector_10" d="M96.2394 29.1167V51.467H83.4637V41.8853H77.0829V29.1167H96.2394Z" fill="#333333"/>
<path id="Vector_11" d="M96.2394 61.2989V92.9738H77.0829V80.2052H83.4637V71.538L78.662 70.4663L77.0829 70.1161L72.4314 69.0729L70.6951 68.6871L66.2007 67.6868L65.0504 67.4295L64.3072 67.2652L59.9701 66.2934L57.9194 65.8361L53.7323 64.9001L51.5387 64.4142L47.5016 63.5139L45.1508 62.9852L41.271 62.1206L38.763 61.5633L36.4693 61.0488L35.0332 60.7273L32.3751 60.1342V29.1167H51.5387V41.8853H45.1508V49.8951L50.2811 51.0455L51.5387 51.3241L56.5189 52.4388L57.9194 52.7532L62.7496 53.825L64.3072 54.1751L66.4865 54.661L68.9802 55.2183L70.6951 55.6041L75.2109 56.6116L77.0829 57.026L81.4487 57.9978L83.4637 58.4479L87.6794 59.3911L89.8515 59.877L93.91 60.7844L95.1033 61.0488L96.2394 61.2989Z" fill="#333333"/>
<path id="Vector_12" d="M51.5387 80.2053V92.9739H32.3751V70.6235H45.1508V80.2053H51.5387Z" fill="#333333"/>
</g>
</g>
</g>
</g>
</svg>
