<svg width="250" height="74" viewBox="0 0 250 74" fill="none" xmlns="http://www.w3.org/2000/svg">
<path d="M69 9V16.1089H65.4436V65.8871H8.55644V16.1089H5V9H19.2218V16.1089H15.6693V58.7742H33.4436V42.7623L40.5564 44.5525V58.7742H58.3347V16.1089H54.7782V9H69Z" fill="white"/>
<path d="M47.6694 9V16.1089H40.5566V32.1208L33.4437 30.3307V16.1089H26.3308V9H47.6694Z" fill="white"/>
<path d="M54.7784 19.6653V32.1088H47.6655V26.7742H44.113V19.6653H54.7784Z" fill="white"/>
<path d="M54.7784 37.5827V55.2177H44.113V48.1088H47.6655V43.2834L44.9922 42.6867L44.113 42.4917L41.5233 41.9109L40.5566 41.6961L38.0543 41.1392L37.4139 40.996L37.0001 40.9045L34.5854 40.3634L33.4437 40.1088L31.1125 39.5877L29.8912 39.3172L27.6436 38.816L26.3348 38.5216L24.1747 38.0402L22.7784 37.7299L21.5014 37.4435L20.7018 37.2645L19.2219 36.9343V19.6653H29.8912V26.7742H26.3348V31.2337L29.1911 31.8741L29.8912 32.0293L32.664 32.6499L33.4437 32.8249L36.1329 33.4216L37.0001 33.6165L38.2135 33.8871L39.6018 34.1974L40.5566 34.4122L43.0707 34.9731L44.113 35.2038L46.5436 35.7448L47.6655 35.9955L50.0126 36.5206L51.2219 36.7911L53.4815 37.2963L54.1458 37.4435L54.7784 37.5827Z" fill="white"/>
<path d="M29.8912 48.1088V55.2177H19.2219V42.7742H26.3348V48.1088H29.8912Z" fill="white"/>
<path d="M86.9803 26.3758C86.96 26.062 86.8709 25.7565 86.7194 25.481C86.5678 25.2055 86.3576 24.9667 86.1035 24.7815C85.4846 24.3732 84.7514 24.1735 84.0109 24.2115C83.2782 24.1654 82.5504 24.3599 81.9384 24.7656C81.7142 24.9215 81.5314 25.1296 81.4058 25.3719C81.2801 25.6143 81.2153 25.8836 81.2169 26.1566C81.2003 26.444 81.2666 26.7302 81.4079 26.981C81.5492 27.2319 81.7596 27.4368 82.0141 27.5715C82.6229 27.916 83.2798 28.1672 83.9631 28.3169L85.5255 28.6875C86.4634 28.8901 87.3688 29.2214 88.2159 29.672C88.9581 30.0677 89.5929 30.6382 90.0653 31.3341C90.5318 32.0705 90.7665 32.93 90.7389 33.8013C90.7623 34.5304 90.6128 35.2548 90.3024 35.915C89.992 36.5752 89.5297 37.1525 88.9533 37.5997C87.7655 38.5456 86.1101 39.0173 83.987 39.0146C81.864 39.012 80.1859 38.5297 78.953 37.5678C77.6935 36.6059 77.0425 35.1843 77 33.303H80.5473C80.5546 33.6889 80.6516 34.0677 80.8308 34.4095C81.01 34.7513 81.2664 35.0466 81.5796 35.272C82.2883 35.7362 83.1247 35.9662 83.9711 35.9297C84.76 35.969 85.5416 35.7614 86.2071 35.3358C86.466 35.1692 86.679 34.9403 86.8266 34.6702C86.9742 34.4 87.0517 34.0972 87.0521 33.7893C87.0581 33.514 86.9894 33.2422 86.8533 33.0029C86.7171 32.7635 86.5186 32.5656 86.2788 32.4302C85.5993 32.0456 84.8636 31.7699 84.0986 31.6131L82.1855 31.1308C80.9052 30.8721 79.7103 30.2966 78.7099 29.4568C78.2861 29.0709 77.953 28.5959 77.7345 28.0659C77.5161 27.536 77.4177 26.9642 77.4464 26.3917C77.4192 25.4035 77.716 24.4335 78.2914 23.6296C78.8907 22.8116 79.7026 22.1734 80.639 21.7842C81.7128 21.3309 82.8695 21.1069 84.0349 21.1266C85.1972 21.102 86.3513 21.3277 87.4188 21.7882C88.3269 22.183 89.1077 22.8218 89.6747 23.6336C90.2214 24.4435 90.5129 25.3986 90.5117 26.3758H86.9803Z" fill="white"/>
<path d="M114.598 26.3759C114.577 26.0621 114.488 25.7566 114.337 25.4811C114.185 25.2056 113.975 24.9668 113.721 24.7816C113.105 24.3735 112.374 24.1725 111.636 24.2076C110.903 24.1615 110.176 24.356 109.564 24.7617C109.34 24.918 109.158 25.1263 109.033 25.3686C108.908 25.611 108.844 25.88 108.846 26.1527C108.83 26.4401 108.896 26.7263 109.037 26.9771C109.178 27.228 109.389 27.4329 109.643 27.5676C110.252 27.9121 110.909 28.1633 111.592 28.313L113.155 28.6836C114.092 28.8855 114.996 29.2168 115.841 29.6681C116.586 30.062 117.222 30.6327 117.695 31.3302C118.161 32.0666 118.396 32.9261 118.368 33.7974C118.392 34.5265 118.242 35.2509 117.932 35.9111C117.621 36.5713 117.159 37.1486 116.583 37.5958C115.395 38.5417 113.739 39.0134 111.616 39.0107C109.493 39.0081 107.81 38.5271 106.566 37.5679C105.307 36.606 104.656 35.1844 104.613 33.3031H108.169C108.176 33.689 108.273 34.0678 108.452 34.4096C108.631 34.7514 108.888 35.0467 109.201 35.2721C109.91 35.7363 110.746 35.9663 111.592 35.9297C112.381 35.9691 113.163 35.7615 113.828 35.3359C114.087 35.1693 114.3 34.9404 114.448 34.6703C114.596 34.4001 114.673 34.0973 114.673 33.7894C114.679 33.5141 114.611 33.2423 114.475 33.003C114.338 32.7636 114.14 32.5657 113.9 32.4303C113.22 32.0463 112.485 31.7706 111.72 31.6132L109.803 31.1309C108.523 30.8722 107.328 30.2967 106.327 29.4569C105.903 29.071 105.57 28.596 105.352 28.066C105.133 27.5361 105.035 26.9643 105.064 26.3918C105.037 25.4036 105.333 24.4336 105.909 23.6297C106.508 22.8117 107.32 22.1735 108.256 21.7843C109.326 21.3359 110.477 21.1147 111.636 21.1346C112.799 21.1101 113.953 21.3357 115.02 21.7963C115.928 22.1911 116.709 22.8298 117.276 23.6417C117.82 24.4498 118.11 25.4019 118.109 26.3759H114.598Z" fill="white"/>
<path d="M136.459 21.3738V38.7636H132.781V21.3738H136.459Z" fill="white"/>
<path d="M162.216 21.3738H165.867V32.8727C165.921 34.0266 165.616 35.1689 164.993 36.1419C164.37 37.115 163.461 37.8709 162.391 38.3053C159.992 39.2565 157.321 39.2565 154.922 38.3053C153.886 37.8742 152.999 37.1496 152.371 36.2207C151.731 35.227 151.408 34.0621 151.446 32.8807V21.3738H155.125V32.7451C155.107 33.1634 155.188 33.58 155.363 33.9605C155.538 34.341 155.8 34.6744 156.129 34.9333C156.854 35.483 157.747 35.7646 158.656 35.7305C159.574 35.7672 160.477 35.4856 161.211 34.9333C161.54 34.6744 161.803 34.341 161.977 33.9605C162.152 33.58 162.234 33.1634 162.216 32.7451V21.3738Z" fill="white"/>
<path d="M187.015 38.7636H180.849V21.3737H187.063C188.634 21.3314 190.191 21.6894 191.587 22.414C192.836 23.0942 193.853 24.1343 194.504 25.3993C195.216 26.8442 195.564 28.4407 195.52 30.0507C195.565 31.6663 195.215 33.2683 194.5 34.718C193.849 35.9905 192.828 37.0356 191.571 37.7153C190.165 38.4453 188.598 38.806 187.015 38.7636ZM184.524 35.6148H186.859C188.496 35.6148 189.738 35.1737 190.586 34.2916C191.434 33.4094 191.856 31.9958 191.854 30.0507C191.854 28.1216 191.431 26.7186 190.586 25.8418C189.741 24.9649 188.502 24.5251 186.867 24.5225H184.524V35.6148Z" fill="white"/>
<path d="M210.196 38.7636V21.3738H221.918V24.403H213.875V28.5481H221.312V31.5813H213.875V35.7345H221.95V38.7636H210.196Z" fill="white"/>
<path d="M246.239 26.3757C246.218 26.0617 246.128 25.7561 245.976 25.4806C245.824 25.2051 245.613 24.9664 245.358 24.7814C244.74 24.3731 244.006 24.1734 243.266 24.2114C242.533 24.1652 241.805 24.3598 241.193 24.7655C240.969 24.9214 240.786 25.1295 240.661 25.3718C240.535 25.6142 240.47 25.8835 240.472 26.1565C240.455 26.4439 240.521 26.7301 240.663 26.9809C240.804 27.2318 241.015 27.4367 241.269 27.5714C241.878 27.9146 242.535 28.1657 243.218 28.3168L244.784 28.6874C245.721 28.8906 246.625 29.2219 247.471 29.6719C248.214 30.0659 248.849 30.6367 249.32 31.334C249.788 32.0699 250.024 32.9295 249.998 33.8012C250.02 34.5306 249.87 35.2551 249.559 35.9152C249.248 36.5754 248.785 37.1526 248.208 37.5996C247.026 38.5455 245.372 39.0172 243.246 39.0145C241.12 39.0119 239.436 38.5309 238.192 37.5717C236.938 36.6098 236.287 35.1882 236.239 33.3069H239.798C239.805 33.6929 239.901 34.0721 240.08 34.4141C240.26 34.756 240.517 35.0511 240.831 35.2759C241.539 35.7408 242.376 35.9709 243.222 35.9335C244.012 35.9732 244.795 35.7656 245.462 35.3397C245.72 35.1725 245.933 34.9436 246.081 34.6735C246.228 34.4035 246.306 34.1009 246.307 33.7932C246.312 33.5181 246.243 33.2466 246.107 33.0074C245.971 32.7682 245.773 32.5702 245.534 32.434C244.852 32.0502 244.116 31.7745 243.35 31.617L241.44 31.1307C240.161 30.872 238.968 30.2964 237.969 29.4567C237.545 29.0704 237.212 28.5955 236.993 28.0657C236.774 27.5359 236.674 26.9643 236.701 26.3916C236.676 25.4037 236.973 24.4343 237.546 23.6295C238.147 22.8125 238.958 22.1745 239.894 21.7841C240.969 21.3303 242.127 21.1063 243.294 21.1265C244.456 21.1027 245.61 21.3283 246.678 21.7881C247.585 22.183 248.364 22.8218 248.93 23.6335C249.475 24.4408 249.765 25.3934 249.763 26.3677L246.239 26.3757Z" fill="white"/>
<path d="M80.9699 49.3138C80.9527 48.9412 80.7894 48.5904 80.5155 48.3373C80.2188 48.0673 79.8283 47.9243 79.4274 47.9387C79.1519 47.932 78.8787 47.9907 78.6303 48.1101C78.4086 48.2137 78.2187 48.3747 78.0802 48.5764C77.9471 48.7771 77.8776 49.0132 77.8809 49.254C77.8809 49.8359 78.2888 50.2505 79.1046 50.4976L79.7622 50.7008C80.1711 50.8068 80.5493 51.0075 80.8663 51.2868C80.9834 51.4025 81.0754 51.5412 81.1364 51.6941C81.1975 51.8471 81.2263 52.011 81.221 52.1756C81.2244 52.4583 81.1439 52.7357 80.9898 52.9727C80.8291 53.2143 80.6041 53.4062 80.3401 53.5268C80.0417 53.6551 79.7203 53.7212 79.3955 53.7212C79.0707 53.7212 78.7493 53.6551 78.4509 53.5268C78.2005 53.4138 77.9836 53.238 77.8212 53.0166C77.6677 52.7938 77.5781 52.5333 77.5621 52.2633H77.7574C77.7672 52.4413 77.8149 52.6152 77.8974 52.7733C77.9799 52.9314 78.0952 53.0701 78.2357 53.18C78.567 53.4276 78.9744 53.5517 79.3875 53.5307C79.6875 53.5376 79.9853 53.4791 80.2604 53.3593C80.4968 53.2561 80.6988 53.0874 80.8424 52.8731C80.9841 52.6595 81.0578 52.408 81.0536 52.1517C81.0585 52.0085 81.033 51.8658 80.9787 51.7332C80.9245 51.6006 80.8427 51.481 80.7387 51.3824C80.4464 51.1321 80.0998 50.9534 79.7263 50.8603L79.0687 50.657C78.1626 50.37 77.7109 49.8944 77.7135 49.2301C77.7078 48.9582 77.7857 48.691 77.9367 48.4648C78.0872 48.2343 78.2982 48.0496 78.5466 47.9307C78.8219 47.7966 79.1252 47.7297 79.4314 47.7354C79.7353 47.7278 80.0364 47.7949 80.3083 47.9307C80.5527 48.058 80.759 48.2478 80.9061 48.4808C81.0556 48.7209 81.1407 48.9954 81.1532 49.2779L80.9699 49.3138Z" fill="white"/>
<path d="M82.5681 47.8711V53.6704H82.3887V47.8711H82.5681Z" fill="white"/>
<path d="M87.1239 49.3139C87.1066 48.9413 86.9434 48.5905 86.6695 48.3374C86.3738 48.0684 85.9849 47.9254 85.5854 47.9388C85.3098 47.9321 85.0366 47.9908 84.7882 48.1102C84.5651 48.2116 84.3747 48.373 84.2382 48.5765C84.1018 48.7758 84.0307 49.0126 84.0349 49.2541C84.0349 49.836 84.4335 50.2506 85.2585 50.4977L85.9162 50.701C86.3263 50.8069 86.7058 51.0075 87.0242 51.2869C87.1406 51.4029 87.2319 51.5418 87.2922 51.6947C87.3526 51.8476 87.3808 52.0114 87.375 52.1757C87.3784 52.4584 87.2979 52.7358 87.1438 52.9728C86.9836 53.2134 86.7602 53.4051 86.4981 53.5269C86.195 53.6676 85.8637 53.7371 85.5296 53.7301C85.2113 53.7364 84.8956 53.6725 84.6049 53.5428C84.3551 53.4307 84.1393 53.2547 83.9791 53.0326C83.824 52.8107 83.7342 52.5497 83.72 52.2793H83.8994C83.9092 52.4574 83.9569 52.6313 84.0394 52.7894C84.1219 52.9475 84.2372 53.0861 84.3777 53.196C84.7093 53.4431 85.1165 53.5671 85.5296 53.5468C85.8296 53.5544 86.1276 53.4959 86.4024 53.3754C86.6393 53.2711 86.8422 53.1027 86.9884 52.8891C87.1287 52.6751 87.2009 52.4236 87.1956 52.1677C87.2003 52.0249 87.1751 51.8827 87.1215 51.7502C87.068 51.6177 86.9873 51.4979 86.8847 51.3985C86.5919 51.1489 86.2454 50.9703 85.8723 50.8763L85.2147 50.6731C84.3113 50.3861 83.8582 49.9104 83.8555 49.2462C83.8518 48.9745 83.9295 48.7079 84.0787 48.4809C84.2308 48.2502 84.4431 48.0655 84.6926 47.9468C84.9678 47.8122 85.2711 47.7453 85.5774 47.7515C85.8799 47.7444 86.1796 47.8114 86.4503 47.9468C86.6947 48.0741 86.901 48.2639 87.0481 48.4968C87.1989 48.7366 87.2853 49.0111 87.2992 49.294L87.1239 49.3139Z" fill="white"/>
<path d="M88.1203 48.0465V47.8711H92.0383V48.0544H90.169V53.6704H89.9896V48.0465H88.1203Z" fill="white"/>
<path d="M93.0746 53.6624V47.8711H96.1675V48.0544H93.2579V50.6611H95.9961V50.8445H93.2579V53.4711H96.2472V53.6504L93.0746 53.6624Z" fill="white"/>
<path d="M97.3712 47.8711H97.5306L99.8982 53.3993L102.286 47.8711H102.445V53.6704H102.262V48.4331H102.242L99.9978 53.6624H99.8185L97.5745 48.4331H97.5546V53.6624H97.3712V47.8711Z" fill="white"/>
<path d="M103.446 53.6623H103.266L105.339 47.863H105.59L107.662 53.6623H107.467L106.766 51.7053H104.163L103.446 53.6623ZM104.207 51.522H106.686L105.458 48.0902H105.438L104.207 51.522Z" fill="white"/>
<path d="M111.852 53.6623H110.337V47.871H111.999C112.479 47.857 112.954 47.977 113.37 48.2177C113.755 48.4497 114.061 48.793 114.247 49.2022C114.462 49.6887 114.564 50.2173 114.546 50.7487C114.595 51.5319 114.341 52.3039 113.836 52.905C113.579 53.1656 113.268 53.368 112.926 53.4986C112.584 53.6292 112.217 53.685 111.852 53.6623ZM110.516 53.4829H111.852C112.197 53.5034 112.542 53.4488 112.864 53.3229C113.186 53.197 113.477 53.0027 113.717 52.7535C114.178 52.1955 114.41 51.4832 114.367 50.7606C114.413 50.0424 114.191 49.3325 113.745 48.7678C113.526 48.526 113.255 48.3364 112.953 48.2129C112.651 48.0895 112.325 48.0353 111.999 48.0543H110.516V53.4829Z" fill="white"/>
<path d="M115.674 53.6624V47.8711H118.763V48.0544H115.853V50.6611H118.595V50.8445H115.853V53.4711H118.842V53.6504L115.674 53.6624Z" fill="white"/>
<path d="M124.953 49.3139C124.935 48.9413 124.772 48.5905 124.498 48.3374C124.203 48.0684 123.814 47.9254 123.414 47.9388C123.139 47.9321 122.865 47.9908 122.617 48.1102C122.394 48.2116 122.203 48.373 122.067 48.5765C121.931 48.7758 121.859 49.0126 121.864 49.2541C121.864 49.836 122.262 50.2506 123.087 50.4977L123.745 50.701C124.155 50.8069 124.535 51.0075 124.853 51.2869C124.969 51.4029 125.061 51.5418 125.121 51.6947C125.181 51.8476 125.21 52.0114 125.204 52.1757C125.207 52.4584 125.127 52.7358 124.973 52.9728C124.812 53.2134 124.589 53.4051 124.327 53.5269C124.024 53.6676 123.692 53.7371 123.358 53.7301C123.04 53.7364 122.724 53.6725 122.434 53.5428C122.184 53.4307 121.968 53.2547 121.808 53.0326C121.653 52.8107 121.563 52.5497 121.549 52.2793H121.728C121.738 52.4574 121.786 52.6313 121.868 52.7894C121.951 52.9475 122.066 53.0861 122.206 53.196C122.538 53.4431 122.945 53.5671 123.358 53.5468C123.66 53.5541 123.959 53.4956 124.235 53.3754C124.47 53.2698 124.671 53.1016 124.817 52.8891C124.957 52.6751 125.03 52.4236 125.024 52.1677C125.029 52.0249 125.004 51.8827 124.95 51.7502C124.897 51.6177 124.816 51.4979 124.713 51.3985C124.421 51.1489 124.074 50.9703 123.701 50.8763L123.043 50.6731C122.14 50.3861 121.687 49.9104 121.684 49.2462C121.681 48.9745 121.758 48.7079 121.908 48.4809C122.06 48.251 122.272 48.0665 122.521 47.9468C122.797 47.8122 123.1 47.7453 123.406 47.7515C123.709 47.7444 124.008 47.8114 124.279 47.9468C124.523 48.0741 124.73 48.2639 124.877 48.4968C125.028 48.7366 125.114 49.0111 125.128 49.294L124.953 49.3139Z" fill="white"/>
<path d="M126.384 53.6624V47.8711H129.477V48.0544H126.567V50.6611H129.305V50.8445H126.567V53.4711H129.556V53.6504L126.384 53.6624Z" fill="white"/>
<path d="M134.778 49.6767C134.741 49.4676 134.671 49.2658 134.57 49.0788C134.349 48.6493 133.986 48.3098 133.542 48.1183C133.289 48.0148 133.018 47.9633 132.745 47.9668C132.328 47.9588 131.92 48.0815 131.577 48.3175C131.232 48.5653 130.964 48.9051 130.804 49.298C130.609 49.762 130.514 50.2617 130.525 50.7648C130.515 51.2648 130.609 51.7614 130.8 52.2236C130.964 52.6169 131.232 52.9575 131.577 53.2081C131.929 53.4483 132.347 53.571 132.773 53.5588C133.146 53.5654 133.514 53.4703 133.837 53.2838C134.15 53.0915 134.402 52.8153 134.566 52.4866C134.753 52.0922 134.844 51.6594 134.833 51.2232H132.84V51.0438H135.025V51.2232C135.039 51.693 134.939 52.1594 134.734 52.5823C134.558 52.9419 134.281 53.2425 133.937 53.4472C133.561 53.6553 133.136 53.7585 132.707 53.7459C132.278 53.7333 131.86 53.6053 131.497 53.3755C131.123 53.1122 130.83 52.749 130.652 52.3272C130.251 51.327 130.251 50.2105 130.652 49.2103C130.827 48.7892 131.119 48.4269 131.493 48.1661C131.811 47.9628 132.174 47.839 132.55 47.805C132.926 47.771 133.304 47.8279 133.654 47.9708C133.903 48.0787 134.129 48.2344 134.319 48.4291C134.496 48.6099 134.644 48.8169 134.758 49.0429C134.859 49.2456 134.932 49.4616 134.973 49.6847L134.778 49.6767Z" fill="white"/>
<path d="M140.182 47.8711H140.366V51.7134C140.371 52.0742 140.28 52.4299 140.101 52.7434C139.923 53.0568 139.663 53.3164 139.349 53.495C139.022 53.675 138.654 53.767 138.281 53.762C137.909 53.7671 137.542 53.6736 137.217 53.491C136.902 53.3149 136.64 53.0565 136.461 52.7434C136.281 52.4303 136.19 52.0743 136.197 51.7134V47.8711H136.38V51.7134C136.373 52.0489 136.458 52.3799 136.627 52.6699C136.787 52.9499 137.022 53.1802 137.305 53.3356C137.605 53.4951 137.941 53.5784 138.281 53.5784C138.622 53.5784 138.957 53.4951 139.258 53.3356C139.542 53.1747 139.776 52.939 139.935 52.654C140.102 52.3633 140.188 52.0327 140.182 51.6974V47.8711Z" fill="white"/>
<path d="M141.996 47.8711V53.6704H141.816V47.8711H141.996Z" fill="white"/>
<path d="M143.451 47.8711H143.61L145.977 53.3993L148.365 47.8711H148.524V53.6704H148.341V48.4331L146.097 53.6624H145.914L143.67 48.4331H143.65V53.6624H143.466L143.451 47.8711Z" fill="white"/>
<path d="M150.159 47.8711V53.6704H149.975V47.8711H150.159Z" fill="white"/>
<path d="M151.609 53.6624V47.8711H154.702V48.0544H151.793V50.6611H154.531V50.8445H151.793V53.4711H154.782V53.6504L151.609 53.6624Z" fill="white"/>
<path d="M160.262 47.8711V53.6704H160.079L156.117 48.2139H156.093V53.6704H155.914V47.8711H156.093L160.079 53.3316V47.8711H160.262Z" fill="white"/>
<path d="M161.287 48.0465V47.8711H165.205V48.0544H163.335V53.6704H163.156V48.0465H161.287Z" fill="white"/>
<path d="M170.474 50.7646C170.486 51.2984 170.382 51.8286 170.171 52.319C169.992 52.7389 169.701 53.1015 169.33 53.3673C168.957 53.6116 168.521 53.7417 168.075 53.7417C167.629 53.7417 167.192 53.6116 166.819 53.3673C166.447 53.1019 166.154 52.7392 165.974 52.319C165.766 51.8277 165.664 51.298 165.675 50.7646C165.663 50.2294 165.767 49.6979 165.978 49.2061C166.158 48.7879 166.449 48.4268 166.819 48.1619C167.192 47.9175 167.629 47.7874 168.075 47.7874C168.521 47.7874 168.957 47.9175 169.33 48.1619C169.701 48.4261 169.992 48.7874 170.171 49.2061C170.383 49.6979 170.486 50.2294 170.474 50.7646ZM170.295 50.7646C170.305 50.2625 170.208 49.7639 170.012 49.3018C169.848 48.9087 169.579 48.5682 169.234 48.3173C168.894 48.0828 168.488 47.9602 168.075 47.9666C167.662 47.9578 167.257 48.0807 166.919 48.3173C166.566 48.5623 166.289 48.9023 166.122 49.2978C165.747 50.2356 165.747 51.2815 166.122 52.2194C166.283 52.6138 166.553 52.955 166.899 53.2038C167.239 53.444 167.647 53.5684 168.063 53.5586C168.477 53.5668 168.882 53.444 169.222 53.2078C169.574 52.9609 169.85 52.6215 170.02 52.2273C170.213 51.7643 170.306 51.266 170.295 50.7646Z" fill="white"/>
<path d="M173.663 47.8711V53.6704H173.483V47.8711H173.663Z" fill="white"/>
<path d="M179.466 47.8711V53.6704H179.283L175.321 48.2139H175.297V53.6704H175.117V47.8711H175.297L179.263 53.3316H179.283V47.8711H179.466Z" fill="white"/>
<path d="M184.022 49.3138C184.004 48.9412 183.841 48.5904 183.567 48.3373C183.271 48.0673 182.88 47.9243 182.479 47.9387C182.204 47.932 181.93 47.9907 181.682 48.1101C181.46 48.2137 181.27 48.3747 181.132 48.5764C180.999 48.7771 180.929 49.0132 180.933 49.254C180.933 49.8359 181.341 50.2505 182.156 50.4976L182.814 50.7008C183.223 50.8068 183.601 51.0075 183.918 51.2868C184.035 51.4025 184.127 51.5412 184.188 51.6941C184.249 51.8471 184.278 52.011 184.273 52.1756C184.276 52.4583 184.196 52.7357 184.042 52.9727C183.881 53.2143 183.656 53.4062 183.392 53.5268C183.093 53.6551 182.772 53.7212 182.447 53.7212C182.122 53.7212 181.801 53.6551 181.503 53.5268C181.252 53.4138 181.035 53.238 180.873 53.0166C180.719 52.7938 180.63 52.5333 180.614 52.2633H180.797C180.807 52.4413 180.855 52.6152 180.937 52.7733C181.02 52.9314 181.135 53.0701 181.275 53.18C181.607 53.4276 182.014 53.5517 182.427 53.5307C182.727 53.5376 183.025 53.4791 183.3 53.3593C183.537 53.2561 183.739 53.0874 183.882 52.8731C184.024 52.6595 184.098 52.408 184.093 52.1517C184.097 52.0086 184.071 51.8663 184.017 51.7338C183.963 51.6013 183.882 51.4817 183.778 51.3824C183.486 51.1321 183.14 50.9534 182.766 50.8603L182.108 50.657C181.205 50.37 180.752 49.8944 180.749 49.2301C180.745 48.9578 180.824 48.6907 180.977 48.4648C181.127 48.2343 181.338 48.0496 181.586 47.9307C181.862 47.7962 182.165 47.7292 182.471 47.7354C182.775 47.7278 183.076 47.7949 183.348 47.9307C183.592 48.058 183.799 48.2478 183.946 48.4808C184.095 48.7209 184.18 48.9954 184.193 49.2779L184.022 49.3138Z" fill="white"/>
<path d="M185.022 48.0465V47.8711H188.936V48.0544H187.071V53.6704H186.887V48.0465H185.022Z" fill="white"/>
<path d="M190.156 47.8711V53.6704H189.976V47.8711H190.156Z" fill="white"/>
<path d="M191.188 48.0465V47.8711H195.106V48.0544H193.237V53.6704H193.057V48.0465H191.188Z" fill="white"/>
<path d="M200.12 47.8711H200.303V51.7134C200.309 52.0742 200.218 52.4299 200.039 52.7434C199.86 53.0568 199.601 53.3164 199.287 53.495C198.96 53.675 198.592 53.767 198.219 53.762C197.846 53.7671 197.479 53.6736 197.155 53.491C196.839 53.3149 196.578 53.0565 196.398 52.7434C196.219 52.4303 196.127 52.0743 196.134 51.7134V47.8711H196.318V51.7134C196.31 52.0489 196.396 52.3799 196.565 52.6699C196.725 52.9499 196.96 53.1802 197.242 53.3356C197.543 53.4951 197.878 53.5784 198.219 53.5784C198.559 53.5784 198.895 53.4951 199.195 53.3356C199.478 53.1802 199.713 52.9499 199.873 52.6699C200.04 52.3792 200.126 52.0487 200.12 51.7134V47.8711Z" fill="white"/>
<path d="M206.051 49.6764H205.86C205.818 49.4706 205.747 49.2718 205.648 49.0865C205.544 48.8828 205.41 48.696 205.25 48.5325C205.074 48.3637 204.868 48.2286 204.644 48.134C204.392 48.0271 204.12 47.9741 203.847 47.9785C203.456 47.9772 203.074 48.0894 202.747 48.3014C202.401 48.541 202.126 48.8685 201.949 49.25C201.748 49.735 201.644 50.2552 201.644 50.7805C201.644 51.3058 201.748 51.826 201.949 52.311C202.124 52.6917 202.4 53.0171 202.747 53.2517C203.074 53.4633 203.457 53.5742 203.847 53.5705C204.12 53.5762 204.392 53.5246 204.644 53.4191C204.868 53.3228 205.073 53.1879 205.25 53.0205C205.411 52.8564 205.545 52.6681 205.648 52.4625C205.747 52.2772 205.818 52.0785 205.86 51.8726H206.051C206.009 52.0929 205.937 52.3062 205.836 52.5063C205.723 52.732 205.577 52.939 205.401 53.1201C205.211 53.3161 204.985 53.4743 204.736 53.5865C204.45 53.7076 204.141 53.7673 203.831 53.7618C203.383 53.7707 202.945 53.6398 202.575 53.3872C202.203 53.124 201.912 52.7624 201.734 52.3429C201.33 51.3419 201.33 50.2231 201.734 49.2221C201.913 48.8032 202.204 48.4419 202.575 48.1778C202.893 47.9745 203.256 47.8507 203.632 47.8167C204.008 47.7827 204.386 47.8396 204.736 47.9825C204.985 48.0904 205.211 48.2461 205.401 48.4409C205.576 48.6228 205.722 48.8296 205.836 49.0547C205.936 49.251 206.008 49.4603 206.051 49.6764Z" fill="white"/>
<path d="M207.346 47.8711V53.6704H207.163V47.8711H207.346Z" fill="white"/>
<path d="M213.273 50.7646C213.285 51.2984 213.181 51.8286 212.97 52.319C212.792 52.7396 212.501 53.1025 212.129 53.3673C211.756 53.6116 211.32 53.7417 210.874 53.7417C210.428 53.7417 209.991 53.6116 209.618 53.3673C209.246 53.1019 208.953 52.7392 208.773 52.319C208.565 51.8277 208.463 51.298 208.474 50.7646C208.462 50.2294 208.566 49.6979 208.777 49.2061C208.957 48.7879 209.248 48.4268 209.618 48.1619C209.991 47.9175 210.428 47.7874 210.874 47.7874C211.32 47.7874 211.756 47.9175 212.129 48.1619C212.501 48.425 212.792 48.7866 212.97 49.2061C213.182 49.6979 213.285 50.2294 213.273 50.7646ZM213.094 50.7646C213.103 50.2629 213.008 49.7648 212.815 49.3018C212.643 48.9073 212.368 48.567 212.017 48.3173C211.677 48.0828 211.271 47.9602 210.858 47.9666C210.445 47.9584 210.04 48.0812 209.702 48.3173C209.349 48.5623 209.072 48.9023 208.905 49.2978C208.53 50.2356 208.53 51.2815 208.905 52.2194C209.066 52.6138 209.336 52.955 209.682 53.2038C210.022 53.444 210.43 53.5684 210.846 53.5586C211.26 53.5668 211.665 53.444 212.006 53.2078C212.357 52.9609 212.633 52.6215 212.803 52.2273C213 51.7652 213.097 51.2669 213.09 50.7646H213.094Z" fill="white"/>
<path d="M218.742 47.8711V53.6704H218.562L214.6 48.2139H214.576V53.6704H214.393V47.8711H214.576L218.538 53.3316H218.562V47.8711H218.742Z" fill="white"/>
<path d="M219.742 53.6624H219.551L221.643 47.8711H221.89L223.963 53.6704H223.772L223.07 51.7134H220.447L219.742 53.6624ZM220.507 51.522H222.986L221.759 48.0903H221.735L220.507 51.522Z" fill="white"/>
<path d="M224.752 53.6624V47.8711H224.931V53.491H227.833V53.6704L224.752 53.6624Z" fill="white"/>
<path d="M234.744 47.8711H234.928V51.7134C234.935 52.0815 234.839 52.4443 234.653 52.7616C234.475 53.0675 234.219 53.3207 233.911 53.495C233.584 53.675 233.216 53.767 232.843 53.762C232.471 53.7671 232.104 53.6736 231.779 53.491C231.47 53.3177 231.211 53.0662 231.03 52.7616C230.847 52.4428 230.753 52.0807 230.759 51.7134V47.8711H230.942V51.7134C230.945 52.0451 231.037 52.3699 231.209 52.654C231.369 52.934 231.604 53.1643 231.887 53.3196C232.187 53.4791 232.523 53.5625 232.863 53.5625C233.203 53.5625 233.539 53.4791 233.84 53.3196C234.122 53.1643 234.357 52.934 234.517 52.654C234.686 52.364 234.772 52.033 234.764 51.6974L234.744 47.8711Z" fill="white"/>
<path d="M237.897 53.6623H236.39V47.871H238.056C238.537 47.857 239.012 47.977 239.428 48.2177C239.812 48.4509 240.117 48.7938 240.304 49.2022C240.517 49.6892 240.62 50.2174 240.603 50.7487C240.65 51.5316 240.397 52.3029 239.894 52.905C239.635 53.1672 239.323 53.3705 238.978 53.5012C238.633 53.6318 238.265 53.6868 237.897 53.6623ZM236.562 53.4829H237.897C238.242 53.5045 238.587 53.4503 238.908 53.3243C239.23 53.1983 239.52 53.0035 239.758 52.7535C240.221 52.1959 240.454 51.4837 240.412 50.7606C240.454 50.0428 240.233 49.3342 239.79 48.7678C239.571 48.5267 239.3 48.3375 238.998 48.2141C238.696 48.0907 238.37 48.0361 238.045 48.0543H236.562V53.4829Z" fill="white"/>
<path d="M241.715 53.6624V47.8711H244.808V48.0544H241.899V50.6611H244.637V50.8445H241.899V53.4711H244.888V53.6504L241.715 53.6624Z" fill="white"/>
<path d="M249.113 49.3137C249.096 48.9412 248.932 48.5904 248.659 48.3372C248.363 48.0675 247.974 47.9244 247.574 47.9387C247.299 47.9319 247.026 47.9906 246.777 48.11C246.556 48.2136 246.366 48.3746 246.227 48.5764C246.092 48.776 246.022 49.0129 246.028 49.254C246.028 49.8359 246.435 50.2504 247.248 50.4975L247.905 50.7008C248.316 50.8058 248.695 51.0066 249.013 51.2867C249.13 51.4024 249.222 51.5411 249.283 51.6941C249.345 51.847 249.373 52.0109 249.368 52.1755C249.37 52.4586 249.288 52.736 249.133 52.9727C248.974 53.2141 248.75 53.406 248.487 53.5267C248.188 53.6555 247.866 53.722 247.541 53.722C247.215 53.722 246.893 53.6555 246.594 53.5267C246.345 53.4131 246.13 53.2374 245.968 53.0165C245.813 52.7946 245.723 52.5336 245.709 52.2632H245.888C245.9 52.4409 245.949 52.6142 246.031 52.772C246.113 52.9299 246.228 53.0688 246.367 53.1799C246.7 53.4276 247.108 53.5516 247.523 53.5307C247.823 53.5375 248.12 53.479 248.396 53.3593C248.63 53.2537 248.832 53.0854 248.977 52.873C249.118 52.659 249.19 52.4075 249.185 52.1516C249.189 52.0088 249.164 51.8666 249.111 51.7341C249.057 51.6016 248.976 51.4818 248.874 51.3823C248.581 51.1328 248.235 50.9541 247.861 50.8602L247.204 50.6569C246.3 50.37 245.847 49.8943 245.845 49.23C245.841 48.9584 245.919 48.6918 246.068 48.4648C246.221 48.2349 246.433 48.0504 246.682 47.9307C246.957 47.7961 247.26 47.7291 247.566 47.7354C247.869 47.7282 248.169 47.7953 248.439 47.9307C248.684 48.0579 248.89 48.2477 249.037 48.4807C249.188 48.7205 249.274 48.995 249.288 49.2779L249.113 49.3137Z" fill="white"/>
</svg>
